HIERARCHY
ROOT root
{
	OFFSET 0.000000 0.000000 0.000000
	CHANNELS 6 Xposition Yposition Zposition Zrotation Yrotation Xrotation
	JOINT lhip
	{
		OFFSET 0.058581 -0.082280 -0.017664
		CHANNELS 3 Zrotation Yrotation Xrotation
		JOINT lknee
		{
			OFFSET 0.043451 -0.386469 0.008037
			CHANNELS 3 Zrotation Yrotation Xrotation
			JOINT lankle
			{
				OFFSET -0.014790 -0.426874 -0.037428
				CHANNELS 3 Zrotation Yrotation Xrotation
				JOINT ltoe
				{
					OFFSET 0.041054 -0.060286 0.122042
					CHANNELS 3 Zrotation Yrotation Xrotation
					End Site
					{
						OFFSET 0.000000 0.000000 0.000000
					}
				}
			}
		}
	}
	JOINT rhip
	{
		OFFSET -0.060310 -0.090513 -0.013543
		CHANNELS 3 Zrotation Yrotation Xrotation
		JOINT rknee
		{
			OFFSET -0.043257 -0.383688 -0.004843
			CHANNELS 3 Zrotation Yrotation Xrotation
			JOINT rankle
			{
				OFFSET 0.019056 -0.420046 -0.034562
				CHANNELS 3 Zrotation Yrotation Xrotation
				JOINT rtoe
				{
					OFFSET -0.034840 -0.062106 0.130323
					CHANNELS 3 Zrotation Yrotation Xrotation
					End Site
					{
						OFFSET 0.000000 0.000000 0.000000
					}
				}
			}
		}
	}
	JOINT lowerback
	{
		OFFSET 0.004439 0.124404 -0.038385
		CHANNELS 3 Zrotation Yrotation Xrotation
		JOINT upperback
		{
			OFFSET 0.004488 0.137956 0.026820
			CHANNELS 3 Zrotation Yrotation Xrotation
			JOINT chest
			{
				OFFSET -0.002265 0.056032 0.002855
				CHANNELS 3 Zrotation Yrotation Xrotation
				JOINT lowerneck
				{
					OFFSET -0.013390 0.211636 -0.033468
					CHANNELS 3 Zrotation Yrotation Xrotation
					JOINT upperneck
					{
						OFFSET 0.010113 0.088937 0.050410
						CHANNELS 3 Zrotation Yrotation Xrotation
						End Site
						{
							OFFSET 0.000000 0.000000 0.000000
						}
					}
				}
				JOINT lclavicle
				{
					OFFSET 0.071702 0.114000 -0.018898
					CHANNELS 3 Zrotation Yrotation Xrotation
					JOINT lshoulder
					{
						OFFSET 0.122921 0.045205 -0.019046
						CHANNELS 3 Zrotation Yrotation Xrotation
						JOINT lelbow
						{
							OFFSET 0.255332 -0.015649 -0.022946
							CHANNELS 3 Zrotation Yrotation Xrotation
							JOINT lwrist
							{
								OFFSET 0.265709 0.012698 -0.007375
								CHANNELS 3 Zrotation Yrotation Xrotation
								End Site
								{
									OFFSET 0.000000 0.000000 0.000000
								}
							}
						}
					}
				}
				JOINT rclavicle
				{
					OFFSET -0.082954 0.112472 -0.023707
					CHANNELS 3 Zrotation Yrotation Xrotation
					JOINT rshoulder
					{
						OFFSET -0.113228 0.046853 -0.008472
						CHANNELS 3 Zrotation Yrotation Xrotation
						JOINT relbow
						{
							OFFSET -0.260127 -0.014369 -0.031269
							CHANNELS 3 Zrotation Yrotation Xrotation
							JOINT rwrist
							{
								OFFSET -0.269108 0.006794 -0.006027
								CHANNELS 3 Zrotation Yrotation Xrotation
								End Site
								{
									OFFSET 0.000000 0.000000 0.000000
								}
							}
						}
					}
				}
			}
		}
	}
}
MOTION
Frames: 7
Frame Time: 0.033333
0.894272 0.716655 0.377376 94.322758 -2.019898 89.767132 25.451046 37.920638 -92.482743 -6.008307 23.553581 139.841857 10.284936 -8.502824 -42.336964 0.000000 -0.000000 0.000000 -27.788878 -37.653111 -89.875300 -1.408203 -13.252126 153.449082 -1.034163 0.253423 -42.457493 0.000000 -0.000000 0.000000 0.115041 -0.971764 64.043687 -2.532735 -4.334606 -5.002250 -1.503591 -1.925458 -4.249267 -20.128558 29.470507 -16.559973 -6.768677 29.973842 -15.176540 -16.861192 -48.547177 9.947009 -44.969471 -21.660581 -4.914548 23.551209 -43.524882 6.789849 52.401257 -11.259336 -7.894937 6.362624 43.294153 4.260632 60.378205 33.637285 1.337953 -46.605948 37.302993 -28.516064 -27.690391 15.651195 -6.933913 
0.902036 0.717163 0.374260 94.942131 -2.749153 89.499277 25.734441 36.374112 -91.657083 -6.347167 23.745247 140.552832 9.888143 -8.685594 -42.224860 0.000000 -0.000000 0.000000 -28.948608 -37.604764 -88.330542 -1.180755 -12.699822 154.162813 -0.976359 -0.090012 -43.545975 0.000000 -0.000000 0.000000 0.508006 -0.712479 63.358734 -2.609111 -4.838811 -4.460356 -1.975696 -2.143443 -3.849354 -18.644399 31.093389 -14.674133 -6.547463 30.327929 -14.377764 -17.693009 -50.052356 10.550513 -44.915225 -21.186779 -3.746663 24.115216 -42.165023 6.471602 54.685990 -10.781685 -8.694582 7.140093 43.732388 4.718202 60.604886 34.777458 1.740670 -46.971548 36.305014 -29.040403 -34.709179 14.386457 -8.389157 
0.904235 0.718424 0.383925 94.261284 -2.997580 89.989279 26.269213 35.705871 -90.299083 -6.641256 23.776273 139.825652 9.156822 -9.634618 -40.538393 0.000000 -0.000000 0.000000 -29.061965 -36.652982 -88.363525 -0.771764 -12.633974 152.991432 -0.903521 0.867920 -41.564779 0.000000 -0.000000 0.000000 0.161610 -0.071182 63.047324 -2.728021 -5.151854 -3.177161 -1.986678 -2.194620 -4.360388 -17.972907 29.993967 -14.130288 -5.153512 28.879488 -13.651640 -17.547008 -52.193532 10.762737 -44.161339 -20.609006 -3.555457 25.364619 -39.759250 3.396095 54.163453 -11.106857 -7.881052 6.145197 46.122270 4.521156 58.832568 35.345409 0.344463 -47.517654 35.166881 -30.705537 -29.632555 12.633028 -5.494413 
0.902518 0.719504 0.401358 92.410311 -2.457635 91.053324 26.582859 36.196790 -88.688574 -7.261272 23.558819 138.049869 8.396441 -9.927984 -38.905453 0.000000 -0.000000 0.000000 -27.820858 -34.276214 -89.582767 -0.536377 -12.964686 150.575174 -0.593516 2.178868 -38.543723 0.000000 -0.000000 0.000000 -0.928702 0.524177 63.292623 -3.045390 -4.665285 -3.362006 -1.875720 -2.141337 -4.172094 -17.046344 26.913921 -14.417630 -3.259200 24.900363 -13.469724 -17.373615 -52.230232 10.263408 -41.561362 -20.952145 -3.459285 23.366787 -37.005472 2.794918 54.116482 -11.688588 -7.547581 5.517435 47.841998 4.007142 55.779755 36.941356 -0.534780 -43.306725 32.362642 -28.493780 -28.502212 12.531494 -5.869789 
0.898306 0.722608 0.420862 91.203865 -1.602292 92.361279 26.289061 36.052780 -87.740901 -7.658717 23.517097 135.706496 7.506722 -9.368145 -38.545269 0.000000 -0.000000 0.000000 -26.684408 -32.679892 -89.944125 -0.442378 -13.705038 147.518180 0.143310 3.137683 -36.245962 0.000000 -0.000000 0.000000 -1.546683 0.742107 63.225581 -2.914322 -4.575071 -3.961408 -1.674915 -2.056799 -3.620724 -14.722336 21.176371 -14.833558 0.287837 17.386829 -13.939236 -16.949035 -51.961421 9.481753 -37.933276 -21.880999 -3.155943 19.234367 -33.463200 2.497775 54.679292 -12.290618 -7.239014 4.992950 49.248897 3.129894 50.523231 37.670668 -1.750019 -35.818421 29.743756 -24.538059 -30.514513 12.704122 -8.269356 
0.892855 0.728154 0.439037 90.917270 -0.840094 93.452564 25.208403 35.200969 -87.615557 -8.024043 23.644520 133.158418 7.289663 -7.800773 -38.338384 0.000000 -0.000000 0.000000 -25.779842 -32.312716 -89.178417 -0.067894 -14.620054 144.143872 0.945645 3.274311 -35.070957 0.000000 -0.000000 0.000000 -1.501513 0.618245 62.847493 -2.353086 -5.024897 -4.571463 -1.125576 -2.060697 -2.869370 -11.507266 13.638572 -15.288971 4.158263 9.468205 -15.215724 -14.975357 -52.836807 7.310897 -34.684140 -22.447086 -1.581933 14.114668 -28.160276 1.946777 57.008511 -11.887734 -7.523776 2.375468 51.278728 0.880512 43.652428 37.186683 -2.817167 -26.942612 26.734580 -19.609227 -32.537088 12.133582 -10.592790 
0.885868 0.735410 0.456387 90.927894 -0.229774 94.058127 23.752883 34.218429 -87.531167 -8.474788 23.904100 130.534134 7.623810 -5.371670 -38.136954 0.000000 -0.000000 0.000000 -24.818994 -32.339185 -87.754075 0.496550 -15.742441 140.504441 1.304308 2.286236 -35.193245 0.000000 -0.000000 0.000000 -0.987667 0.180992 62.557779 -1.905361 -5.359382 -5.145926 -0.294308 -2.198956 -3.068891 -8.994676 5.765136 -15.962875 7.885424 4.033241 -16.275071 -14.296310 -55.002376 6.939217 -30.624371 -21.053505 -0.264070 8.854447 -23.551056 1.359181 57.248162 -12.261598 -7.384077 -1.650219 54.771822 -0.927615 35.414400 34.954295 -5.279369 -17.847190 23.285830 -14.654915 -28.495994 11.544853 -11.003239 
